<?xml version="1.0" encoding="iso-8859-1"?>
<!-- Generator: Adobe Illustrator 19.0.0, SVG Export Plug-In . SVG Version: 6.00 Build 0)  -->
<svg version="1.1" id="Capa_1" xmlns="http://www.w3.org/2000/svg" xmlns:xlink="http://www.w3.org/1999/xlink" x="0px" y="0px"
	 viewBox="0 0 464.595 464.595" style="enable-background:new 0 0 464.595 464.595;" xml:space="preserve">
<g>
	<path style="fill:#00ACEA;" d="M425.756,139.389c18.449,2.715,31.203,19.871,28.489,38.32s-19.871,31.203-38.32,28.489
		c-18.448-2.715-31.203-19.87-28.489-38.319c2.713-18.448,19.867-31.204,38.315-28.491
		C425.752,139.389,425.754,139.389,425.756,139.389z"/>
	<path style="fill:#00ACEA;" d="M311.036,236.28c18.449,2.714,31.204,19.87,28.49,38.319c-2.714,18.449-19.87,31.204-38.319,28.49
		c-18.445-2.713-31.2-19.863-28.492-38.309C275.429,246.329,292.584,233.57,311.036,236.28z"/>
	<path style="fill:#00ACEA;" d="M174.676,170.749c18.449,2.71,31.208,19.862,28.498,38.311s-19.862,31.208-38.311,28.498
		s-31.208-19.862-28.498-38.311c0-0.003,0.001-0.005,0.001-0.008C139.079,180.794,156.23,168.04,174.676,170.749z"/>
	<path style="fill:#00ACEA;" d="M74.456,277.74c7.764,16.95,0.317,36.984-16.633,44.748s-36.984,0.317-44.748-16.633
		s-0.317-36.984,16.633-44.749c5.929-2.716,12.517-3.656,18.968-2.707C60.014,260.007,69.741,267.304,74.456,277.74z"/>
</g>
<g>
	<path style="fill:#D4E1F4;" d="M196.908,218.834l12.56-15.56l69.102,55.779l-12.56,15.56L196.908,218.834z"/>
	<path style="fill:#D4E1F4;" d="M81.484,284.859l-14.478-13.8l0.21-0.22c0.028-0.03,0.057-0.06,0.086-0.089l62.84-64.3l14.3,13.978
		L81.484,284.859z"/>
	<path style="fill:#D4E1F4;" d="M330.057,248.115l62.158-56.443l13.445,14.806l-62.158,56.443L330.057,248.115z"/>
</g>
<g>
	<path style="fill:#00ACEA;" d="M306.152,313.452c-24.171,0.017-43.78-19.563-43.797-43.734
		c-0.017-24.171,19.563-43.78,43.734-43.797c2.142-0.002,4.282,0.154,6.401,0.466c23.913,3.522,40.444,25.762,36.923,49.675
		c-3.161,21.463-21.567,37.371-43.262,37.39L306.152,313.452z M306.113,245.919c-13.127,0.002-23.766,10.645-23.764,23.772
		c0.002,13.127,10.645,23.766,23.772,23.764c13.127-0.002,23.766-10.645,23.764-23.772c-0.002-11.787-8.642-21.792-20.303-23.51
		C308.433,246.005,307.274,245.92,306.113,245.919z"/>
	<path style="fill:#00ACEA;" d="M169.864,247.926c-24.172,0.068-43.823-19.472-43.892-43.644s19.472-43.823,43.644-43.892
		c2.18-0.006,4.357,0.15,6.513,0.469c23.915,3.521,40.448,25.763,36.926,49.678c-3.156,21.437-21.523,37.338-43.191,37.393V247.926z
		 M169.753,180.389c-13.141,0.001-23.793,10.656-23.791,23.797c0.001,13.141,10.656,23.793,23.797,23.791
		c13.141-0.001,23.793-10.656,23.791-23.797c-0.001-11.801-8.652-21.818-20.327-23.537
		C172.074,180.474,170.914,180.389,169.753,180.389z"/>
	<path style="fill:#00ACEA;" d="M43.793,335.573C19.621,335.587,0.015,316.004,0,291.833c-0.015-24.171,19.568-43.778,43.739-43.793
		c2.138-0.001,4.274,0.154,6.389,0.465c23.914,3.51,40.455,25.742,36.945,49.657c-3.153,21.479-21.575,37.401-43.284,37.409
		L43.793,335.573z M43.755,268.04c-13.125,0.009-23.758,10.656-23.749,23.781c0.009,13.125,10.656,23.758,23.781,23.749
		c11.782-0.008,21.779-8.648,23.495-20.304c1.896-12.986-7.082-25.055-20.065-26.973C46.071,268.125,44.914,268.04,43.755,268.04
		L43.755,268.04z"/>
	<path style="fill:#00ACEA;" d="M420.935,216.566c-2.159-0.001-4.316-0.159-6.452-0.473c-23.914-3.514-40.451-25.749-36.937-49.663
		s25.749-40.451,49.663-36.937l0,0c23.915,3.529,40.441,25.776,36.912,49.69c-3.162,21.43-21.525,37.324-43.187,37.381
		L420.935,216.566z M420.835,149.029c-13.127,0.003-23.766,10.647-23.762,23.774c0.003,13.127,10.647,23.766,23.774,23.762
		s23.766-10.647,23.762-23.774c-0.003-11.786-8.642-21.79-20.303-23.508c-1.151-0.169-2.312-0.253-3.475-0.254H420.835z"/>
</g>
<g>
</g>
<g>
</g>
<g>
</g>
<g>
</g>
<g>
</g>
<g>
</g>
<g>
</g>
<g>
</g>
<g>
</g>
<g>
</g>
<g>
</g>
<g>
</g>
<g>
</g>
<g>
</g>
<g>
</g>
</svg>
