<svg height="463pt" viewBox="0 -10 463 463" width="463pt" xmlns="http://www.w3.org/2000/svg"><path d="m463 40v29.011719h-463v-29.011719c0-22.089844 17.910156-40 40-40h383c22.089844 0 40 17.910156 40 40zm0 0" fill="#00acea"/><path d="m231.5 285.371094h-25.800781v40.128906h51.601562v-40.128906zm0-85.03125 47.148438-15.199219v-64.359375l-47.148438-15.203125-47.148438 15.203125v64.359375zm208.550781-131.328125v258.667969c0 22.089843-17.910156 40-40 40h-337.660156c-22.09375 0-40-17.910157-40-40v-258.667969zm-86.570312 256.488281v-40.128906h-51.601563v40.128906zm-192.359375 0v-40.128906h-51.601563v40.128906zm0 0" fill="#00efd1"/><path d="m301.878906 285.371094h51.601563v40.128906h-51.601563zm0 0" fill="#fedb41"/><path d="m278.648438 120.78125v64.359375l-47.148438 15.199219v-64.351563zm0 0" fill="#00acea"/><path d="m231.5 135.988281-47.148438-15.207031 47.148438-15.203125 47.148438 15.203125zm0 0" fill="#fedb41"/><path d="m231.5 285.371094h25.800781v40.128906h-51.601562v-40.128906zm0 0" fill="#fedb41"/><path d="m231.5 199.539062v.800782l-47.148438-15.199219v-64.359375l47.148438 15.207031zm0 0" fill="#2ed3ff"/><path d="m109.519531 285.371094h51.601563v40.128906h-51.601563zm0 0" fill="#fedb41"/><path d="m139.378906 443.082031c-3.472656.003907-6.550781-2.234375-7.621094-5.535156-1.066406-3.300781.113282-6.917969 2.925782-8.949219l91.847656-66.402344c2.316406-1.6875 5.359375-2.007812 7.976562-.835937 2.617188 1.167969 4.40625 3.644531 4.695313 6.496094.289063 2.851562-.96875 5.640625-3.296875 7.308593l-91.847656 66.398438c-1.363282.988281-3 1.519531-4.679688 1.519531zm0 0" fill="#00efd1"/><path d="m323.0625 443.082031c-1.679688 0-3.316406-.53125-4.679688-1.519531l-91.851562-66.398438c-2.328125-1.671874-3.585938-4.457031-3.296875-7.308593.289063-2.851563 2.082031-5.332031 4.699219-6.5 2.613281-1.167969 5.65625-.847657 7.972656.839843l91.851562 66.402344c2.8125 2.03125 3.992188 5.648438 2.921876 8.949219-1.070313 3.300781-4.144532 5.535156-7.617188 5.53125zm0 0" fill="#00efd1"/><path d="m319.5 265.601562v19.9375h16v-19.9375c0-17.382812-14.527344-31.0625-31.910156-31.0625h-64.089844v-35h-16v35h-64.089844c-17.382812 0-31.910156 13.679688-31.910156 31.0625v19.9375h16v-19.9375c0-8.558593 7.351562-15.0625 15.910156-15.0625h64.089844v34.902344l16-.070312v-34.832032h64.089844c8.558594 0 15.910156 6.5 15.910156 15.0625zm0 0" fill="#f4b844"/></svg>